#!OML:ASF Y:\EmotionMaleHayes\Project 1\Capture day 1\Session 1\Male1.ASF
:FULLY-SPECIFIED
:DEGREES
374
root -21.4752 16.9157 -0.0139178 33.253 77.1403 36.7327
lowerback 8.64416 2.01557 -12.2499
upperback 8.90765 2.7094 -4.12242
thorax 4.35335 1.05409 2.35624
lowerneck -22.8983 2.68069 3.17453
upperneck 18.802 2.405 1.06628
head 9.76381 1.49074 0.216855
rclavicle -1.70955e-014 4.69132e-014
rhumerus -25.8359 16.1832 -92.4176
rradius 40.2775
rwrist -7.62716
rhand -10.946 -32.8192
rfingers 7.12502
rthumb 15.0725 -62.2504
lclavicle -1.70955e-014 4.69132e-014
lhumerus -11.109 -16.0856 84.6862
lradius 29.2315
lwrist -1.76298
lhand -17.5214 -26.1297
lfingers 7.12502
lthumb 8.73222 3.66963
rfemur -21.2941 -3.58912 10.3512
rtibia 44.3919
rfoot -15.3814 -6.99507
rtoes 9.04343
lfemur 9.90894 1.68093 -31.0644
ltibia 11.2868
lfoot -19.9377 6.81878
ltoes -11.9541
375
root -21.3762 16.9163 -0.0252522 34.1102 77.1538 37.3984
lowerback 8.56572 2.00851 -12.42
upperback 8.76457 2.67147 -4.00816
thorax 4.23653 1.02665 2.57238
lowerneck -22.6461 2.57071 2.7474
upperneck 18.4425 2.27743 1.63947
head 9.57802 1.46633 0.460872
rclavicle -1.59028e-015 2.8625e-014
rhumerus -26.0564 16.1201 -92.2591
rradius 40.4041
rwrist -7.74102
rhand -10.8795 -32.5204
rfingers 7.12502
rthumb 15.1366 -61.9468
lclavicle -1.59028e-015 2.8625e-014
lhumerus -11.2828 -16.6879 84.9179
lradius 29.7364
lwrist -1.4781
lhand -17.3965 -26.3424
lfingers 7.12502
lthumb 8.85272 3.45194
rfemur -21.7118 -3.6868 10.5279
rtibia 42.4273
rfoot -15.4364 -6.9894
rtoes 8.89945
lfemur 10.4559 1.87693 -31.2325
ltibia 10.4806
lfoot -19.6792 6.80454
ltoes -13.3448
376
root -21.3018 16.908 -0.0276967 37.953 77.3945 40.9374
lowerback 8.61447 1.80963 -13.0329
upperback 8.62944 2.35264 -3.99172
thorax 4.10372 0.84665 2.93849
lowerneck -22.8678 2.51814 2.81456
upperneck 18.4082 2.14361 1.76615
head 9.60437 1.4245 0.477385
rclavicle -2.78299e-015 -1.19271e-014
rhumerus -26.0549 16.1781 -92.2048
rradius 40.5024
rwrist -7.92395
rhand -10.8413 -32.4734
rfingers 7.12502
rthumb 15.1734 -61.897
lclavicle -2.78299e-015 -1.19271e-014
lhumerus -11.3143 -17.3879 84.9886
lradius 30.3099
lwrist -1.13085
lhand -17.7902 -26.4793
lfingers 7.12502
lthumb 8.47282 3.33072
rfemur -22.2169 -4.2068 10.2491
rtibia 40.4164
rfoot -15.6083 -6.9798
rtoes 9.53145
lfemur 10.5584 1.64029 -31.7864
ltibia 10.0693
lfoot -19.7024 5.9832
ltoes -10.9622
377
root -21.1854 16.9046 -0.0465991 38.7781 77.1578 41.613
lowerback 8.23132 1.81193 -13.2475
upperback 8.6462 2.41068 -3.96596
thorax 4.32585 0.849085 3.09018
lowerneck -23.0617 2.51427 2.98204
upperneck 18.3016 2.07845 1.74286
head 9.6033 1.40236 0.433959
rclavicle 2.74323e-014 -1.66979e-014
rhumerus -26.0744 16.1619 -92.1042
rradius 40.6243
rwrist -7.92955
rhand -10.6869 -32.7587
rfingers 7.12502
rthumb 15.3221 -62.1711
lclavicle 2.74323e-014 -1.66979e-014
lhumerus -11.3298 -18.106 85.0912
lradius 30.9265
lwrist -0.653817
lhand -18.028 -26.4429
lfingers 7.12502
lthumb 8.24332 3.37624
rfemur -22.4104 -4.29336 10.1621
rtibia 38.1769
rfoot -15.4018 -6.84347
rtoes 9.61684
lfemur 11.2043 1.2546 -32.4367
ltibia 9.20961
lfoot -19.9669 5.97269
ltoes -7.32744
378
root -21.1016 16.8915 -0.0498928 41.0002 77.4695 43.5367
lowerback 8.70119 1.7901 -13.4891
upperback 8.23442 2.20963 -3.79041
thorax 3.63313 0.775082 3.40174
lowerneck -23.239 2.37179 3.03767
upperneck 18.5675 1.86327 1.69658
head 9.72908 1.30546 0.381936
rclavicle -5.56597e-015 7.95139e-016
rhumerus -26.8008 15.7528 -91.9753
rradius 40.9434
rwrist -7.69384
rhand -10.4852 -32.7304
rfingers 7.12502
rthumb 15.5163 -62.1278
lclavicle -5.56597e-015 7.95139e-016
lhumerus -11.8888 -18.9834 85.5058
lradius 31.5385
lwrist -0.142874
lhand -18.1576 -26.4464
lfingers 7.12502
lthumb 8.11824 3.37765
rfemur -22.7302 -4.69667 10.3041
rtibia 35.9701
rfoot -15.1232 -6.98034
rtoes 9.30682
lfemur 11.3714 1.20236 -32.5651
ltibia 8.88822
lfoot -19.9243 5.39176
ltoes -6.07898
379
root -21.0177 16.8761 -0.0511972 43.247 77.8032 45.4213
lowerback 8.33329 1.59421 -13.564
upperback 8.32778 2.02373 -3.7237
thorax 3.96779 0.654446 3.5353
lowerneck -23.5941 2.32879 3.0826
upperneck 18.4107 1.73327 1.86571
head 9.73464 1.26778 0.417528
rclavicle -1.07344e-014 3.33958e-014
rhumerus -26.605 15.616 -91.8826
rradius 41.0713
rwrist -7.82127
rhand -10.4323 -32.7267
rfingers 7.12502
rthumb 15.5673 -62.1201
lclavicle -1.07344e-014 3.33958e-014
lhumerus -11.5583 -19.6842 85.4113
lradius 32.0716
lwrist 0.450873
lhand -18.1752 -26.393
lfingers 7.12502
lthumb 8.10123 3.43167
rfemur -23.0824 -4.99931 10.4736
rtibia 33.6181
rfoot -14.7327 -6.9526
rtoes 9.49869
lfemur 11.4327 1.25866 -32.5534
ltibia 8.63591
lfoot -19.8026 4.7192
ltoes -6.12778
380
root -20.9083 16.8682 -0.0612027 42.7614 77.7509 44.7807
lowerback 7.83183 1.58404 -13.367
upperback 8.47394 2.12508 -3.7048
thorax 4.39024 0.684303 3.45682
lowerneck -23.6617 2.27718 3.14103
upperneck 18.0721 1.59597 2.07335
head 9.62537 1.22943 0.457935
rclavicle 6.75868e-015 1.59028e-015
rhumerus -26.3475 15.5513 -91.9186
rradius 40.88
rwrist -7.96539
rhand -10.6764 -32.8081
rfingers 7.12502
rthumb 15.3322 -62.2197
lclavicle 6.75868e-015 1.59028e-015
lhumerus -11.341 -20.2738 85.3149
lradius 32.595
lwrist 0.927485
lhand -18.0103 -26.347
lfingers 7.12502
lthumb 8.26042 3.47153
rfemur -23.153 -4.7167 10.7781
rtibia 31.1616
rfoot -13.9707 -6.68429
rtoes 10.9553
lfemur 11.9862 1.46399 -32.5124
ltibia 7.98307
lfoot -19.886 4.55178
ltoes -6.16632
381
root -20.8059 16.8579 -0.067704 44.1201 77.5838 45.9108
lowerback 7.83384 1.64068 -13.696
upperback 8.28368 2.14967 -3.63431
thorax 4.17373 0.691997 3.70727
lowerneck -23.7179 2.17507 3.19291
upperneck 17.9963 1.43996 2.0545
head 9.6085 1.15766 0.419535
rclavicle 1.59028e-014 4.69132e-014
rhumerus -26.5649 15.3534 -91.8438
rradius 40.6905
rwrist -7.80711
rhand -10.8993 -32.6845
rfingers 7.12502
rthumb 15.1175 -62.1124
lclavicle 1.59028e-014 4.69132e-014
lhumerus -11.6917 -20.7141 85.6382
lradius 33.1076
lwrist 1.07844
lhand -18.0016 -26.3809
lfingers 7.12502
lthumb 8.26883 3.43728
rfemur -23.3692 -4.67241 10.6355
rtibia 28.7973
rfoot -12.8973 -6.54402
rtoes 11.4468
lfemur 12.2848 1.49462 -32.8716
ltibia 7.54782
lfoot -20.0826 4.08811
ltoes -4.2357
382
root -20.7051 16.8428 -0.0723372 46.8669 77.5674 48.3128
lowerback 7.51517 1.5135 -14.1275
upperback 8.20681 2.00481 -3.56864
thorax 4.29222 0.58914 4.02591
lowerneck -23.8375 2.16415 3.31045
upperneck 17.9164 1.39535 1.98293
head 9.6025 1.13558 0.369357
rclavicle -2.36554e-014 -6.91771e-014
rhumerus -26.6302 15.2837 -91.7479
rradius 40.6367
rwrist -7.64267
rhand -10.9117 -32.5648
rfingers 7.12502
rthumb 15.1056 -61.9936
lclavicle -2.36554e-014 -6.91771e-014
lhumerus -11.8327 -20.8304 85.8363
lradius 33.5845
lwrist 1.1432
lhand -18.0648 -26.6521
lfingers 7.12502
lthumb 8.20782 3.16845
rfemur -23.639 -4.97063 10.3251
rtibia 26.379
rfoot -12.0998 -6.38196
rtoes 11.9152
lfemur 12.3915 1.39701 -33.3111
ltibia 7.27374
lfoot -20.1893 3.45314
ltoes -2.87637
383
root -20.5976 16.8189 -0.0814375 49.4571 77.7271 50.5542
lowerback 7.30693 1.35114 -14.1344
upperback 8.04312 1.79968 -3.58267
thorax 4.26345 0.491086 4.02867
lowerneck -23.8697 2.08588 3.4319
upperneck 17.8645 1.22184 2.08981
head 9.59006 1.07698 0.361388
rclavicle 1.0138e-014 4.77083e-015
rhumerus -26.9368 15.0287 -91.8217
rradius 40.7282
rwrist -7.39487
rhand -10.8176 -32.6572
rfingers 7.12502
rthumb 15.1962 -62.0791
lclavicle 1.0138e-014 4.77083e-015
lhumerus -12.1248 -21.2182 85.9416
lradius 34.1272
lwrist 1.44512
lhand -18.1442 -27.1239
lfingers 7.12502
lthumb 8.13117 2.69962
rfemur -23.7839 -5.33093 10.1475
rtibia 23.9443
rfoot -11.5101 -5.90013
rtoes 14.7914
lfemur 12.5684 1.56427 -33.477
ltibia 6.99059
lfoot -20.2324 2.77889
ltoes -3.78818
384
root -20.4779 16.7929 -0.0973266 52.5439 77.6686 53.3556
lowerback 6.67364 1.15843 -14.2948
upperback 8.18732 1.6842 -3.64666
thorax 4.80446 0.391867 4.06532
lowerneck -24.0217 2.00219 3.42181
upperneck 17.4942 1.06095 2.30848
head 9.48418 1.02284 0.414078
rclavicle 5.96354e-016 1.43125e-014
rhumerus -26.7979 14.8996 -91.7428
rradius 40.6417
rwrist -7.56183
rhand -11.0066 -32.4591
rfingers 7.12502
rthumb 15.0141 -61.8947
lclavicle 5.96354e-016 1.43125e-014
lhumerus -11.9815 -21.831 85.9362
lradius 34.6355
lwrist 1.88713
lhand -18.4275 -27.193
lfingers 7.12502
lthumb 7.85778 2.64102
rfemur -23.826 -5.70031 9.6316
rtibia 21.5781
rfoot -10.5656 -5.14052
rtoes 17.6165
lfemur 12.7668 1.84371 -33.925
ltibia 6.82114
lfoot -20.2759 2.16762
ltoes -5.16183
385
root -20.3591 16.7735 -0.111845 54.8822 77.43 55.4772
lowerback 6.55417 1.14238 -14.5943
upperback 8.05798 1.65624 -3.64976
thorax 4.73817 0.369769 4.22733
lowerneck -24.1617 1.87499 3.36702
upperneck 17.4434 0.868542 2.44672
head 9.48927 0.946761 0.443752
rclavicle -1.53064e-014 -2.10712e-014
rhumerus -27.1214 14.7759 -91.6793
rradius 40.3938
rwrist -8.10505
rhand -11.6889 -31.7603
rfingers 7.12502
rthumb 14.3568 -61.2439
lclavicle -1.53064e-014 -2.10712e-014
lhumerus -12.2919 -22.3831 86.2636
lradius 35.081
lwrist 2.19844
lhand -18.5283 -27.0411
lfingers 7.12502
lthumb 7.76047 2.7965
rfemur -23.8315 -5.5171 9.03269
rtibia 19.2962
rfoot -9.92433 -4.71012
rtoes 18.074
lfemur 13.0223 2.0611 -34.4515
ltibia 6.60467
lfoot -20.3146 1.85053
ltoes -6.11913
386
root -20.2786 16.7427 -0.106912 58.4766 77.5165 58.62
lowerback 6.61205 0.989086 -14.9536
upperback 7.87751 1.39854 -3.55669
thorax 4.55707 0.236125 4.52858
lowerneck -24.4663 1.77034 3.36271
upperneck 17.4627 0.698196 2.49806
head 9.54823 0.875896 0.440224
rclavicle 1.64991e-014 8.18993e-014
rhumerus -27.3021 14.7287 -91.6397
rradius 40.2406
rwrist -8.38134
rhand -12.1562 -31.3402
rfingers 7.12502
rthumb 13.9065 -60.8552
lclavicle 1.64991e-014 8.18993e-014
lhumerus -12.2647 -22.5335 86.4818
lradius 35.2257
lwrist 2.51418
lhand -18.2428 -27.3223
lfingers 7.12502
lthumb 8.03599 2.50494
rfemur -24.2377 -4.98187 8.60346
rtibia 17.2329
rfoot -10.0292 -4.98842
rtoes 17.273
lfemur 12.7559 2.32363 -34.492
ltibia 6.7826
lfoot -20.3937 0.930803
ltoes -7.01829
